<?xml version="1.0" ?><svg enable-background="new 0 0 32 32" version="1.1" viewBox="0 0 32 32" xml:space="preserve" xmlns="http://www.w3.org/2000/svg" xmlns:xlink="http://www.w3.org/1999/xlink"><g id="OUTLINE"><path d="M13.892,24.123h3.357v-8.124h2.239l0.297-2.799h-2.536l0.003-1.402c0-0.73,0.07-1.121,1.117-1.121h1.4v-2.8h-2.24   c-2.69,0-3.637,1.358-3.637,3.642V13.2h-1.677V16h1.677V24.123z"/><g><g id="Shopping_10_49_"><g><g><g><g><path d="M16,1c8.271,0,15,6.729,15,15s-6.729,15-15,15S1,24.271,1,16S7.729,1,16,1 M16,0         C7.163,0,0,7.163,0,16s7.163,16,16,16s16-7.163,16-16S24.837,0,16,0L16,0z" fill="#1A1718"/></g></g></g></g></g><g><g><g><path d="M16,3.007c7.165,0,12.993,5.829,12.993,12.993S23.164,28.993,16,28.993S3.007,23.164,3.007,16       S8.835,3.007,16,3.007 M16,2.507C8.547,2.507,2.507,8.547,2.507,16S8.547,29.493,16,29.493S29.493,23.452,29.493,16       S23.452,2.507,16,2.507L16,2.507z" fill="#1A1718"/></g></g></g></g></g></svg>